<svg width="131" height="38" viewBox="0 0 131 38" fill="none" xmlns="http://www.w3.org/2000/svg">
<circle cx="109.635" cy="18.6255" r="18.6235" fill="#FFB54B"/>
<path d="M130.809 18.624C130.808 28.9093 122.47 37.2471 112.185 37.2471C111.925 37.2471 111.666 37.24 111.409 37.2295C121.335 36.8227 129.257 28.6494 129.257 18.624C129.257 8.59844 121.335 0.423386 111.409 0.0166007C111.666 0.00606176 111.925 5.65694e-06 112.185 -8.14082e-07C122.47 -3.64488e-07 130.809 8.33852 130.809 18.624Z" fill="#FFB54B"/>
<path d="M109.751 5.98828C109.726 6.33977 109.689 6.68933 109.642 7.03696C109.125 10.8513 107.308 14.3553 104.426 17.0363C103.786 17.6328 103.108 18.1729 102.4 18.6558C100.554 19.9143 98.4975 20.7827 96.333 21.2221V15.2629C97.8575 14.7728 99.2749 13.9441 100.491 12.8127C102.453 10.9873 103.664 8.58914 103.953 5.98828H109.751ZM109.746 31.2625H103.947C103.646 28.6847 102.438 26.3096 100.492 24.4983C99.2755 23.3662 97.8582 22.5382 96.3337 22.0482V16.0896C98.4988 16.5296 100.555 17.3981 102.401 18.6565C103.11 19.1388 103.787 19.6801 104.427 20.2754C107.308 22.9564 109.125 26.459 109.643 30.2741V30.2753C109.687 30.6025 109.722 30.9315 109.746 31.2625ZM122.937 15.2654V21.2195C120.777 20.7789 118.726 19.9117 116.884 18.6558C116.176 18.1729 115.498 17.6322 114.858 17.0363C111.977 14.3553 110.159 10.852 109.642 7.03696C109.595 6.68997 109.558 6.34041 109.533 5.98828H115.331C115.815 10.3825 118.883 13.9711 122.937 15.2654ZM122.937 16.0928V22.0456C118.902 23.3342 115.844 26.8958 115.339 31.2631H109.538C109.563 30.9321 109.599 30.6031 109.643 30.276V30.2747C110.16 26.459 111.977 22.9564 114.858 20.276C115.499 19.6801 116.176 19.1401 116.884 18.6571C118.726 17.4013 120.777 16.5341 122.938 16.0935L122.937 16.0928Z" fill="white"/>
<path d="M61.5242 17.5171L55.3163 15.3555C53.5426 22.0511 48.9237 28.9721 46.8359 31.5956C49.2193 33.0922 53.986 36.052 53.986 35.919C57.4447 32.549 60.4526 22.2469 61.5242 17.5171Z" fill="#FFB54B"/>
<path d="M0.111116 16.9629H4.98871C6.76238 23.6585 12.6007 28.9721 14.6885 31.5957C12.3051 33.0922 7.53836 36.052 7.53836 35.919C4.07971 32.549 1.18271 21.6927 0.111116 16.9629Z" fill="#FFB54B"/>
<path d="M74.7715 3.32812C76.0278 7.74376 79.2274 16.5748 81.9766 16.5752L79.6152 25.3877H63.9629L65.2373 16.5752H73.2744C73.2714 16.572 73.2686 16.5686 73.2656 16.5654C75.0255 16.6568 77.4652 16.6865 78.8174 16.6865C74.2184 16.6865 71.3554 14.241 70.5586 13.2109C70.5064 13.1362 70.4531 13.0619 70.4014 12.9863C70.3986 12.9816 70.3952 12.9773 70.3926 12.9727V12.9736C69.0419 10.9988 67.8778 8.74839 67.9541 7.04199C68.2247 7.17188 72.6111 4.62069 74.7715 3.32812Z" fill="#FFB54B"/>
<path d="M9.75977 26.4404C10.5055 27.4864 11.3507 28.9141 12.2217 30.8682C11.9766 30.7761 10.1576 32.9805 8.14746 32.9805C10.6425 30.4436 10.2816 28.5242 8.7959 26.7373L9.75977 26.4404ZM30.5957 3.99219C38.9096 5.08223 54.4283 9.41369 49.9951 18.0156C49.5832 18.1553 49.132 24.2243 40.9053 24.3691V24.3906H15.835C13.9286 24.2421 6.98315 24.401 6.03027 19.9385C6.30567 21.2282 6.82422 23.5242 7.27344 25.2158C6.96203 24.942 6.63627 24.6666 6.30078 24.3906H5.32129V23.5889C2.95136 21.6616 0.467917 19.559 0 16.6855H11.5244C11.5198 16.6804 11.5153 16.6751 11.5107 16.6699C13.2781 16.7665 15.7994 16.7978 17.1826 16.7979C12.7043 16.7978 9.87156 14.4789 8.99023 13.4062C7.70722 11.4888 6.63371 9.3462 6.70703 7.70605C6.97314 7.83903 11.3627 5.28552 13.5244 3.99219C14.592 7.74456 17.0643 14.6848 19.4697 16.6855H29.9863C29.8387 15.5951 29.9534 13.1376 31.5938 12.0293L30.5957 3.99219ZM42.1826 10.126C42.1803 9.93802 42.1784 9.83398 42.1748 9.83398C42.1748 12.3588 39.7813 14.5778 38.584 15.3721C40.8971 16.7479 41.9414 19.6881 42.1748 20.9863C42.1782 19.9727 42.1805 18.6819 42.1836 17.3418C42.1867 18.6819 42.188 19.9727 42.1914 20.9863C42.4248 19.6881 43.4701 16.7479 45.7832 15.3721C44.586 14.578 42.1914 12.359 42.1914 9.83398C42.1879 9.83524 42.1849 9.93917 42.1826 10.126ZM35.1816 14.1133C35.1811 13.643 35.1825 13.3281 35.1787 13.3281C35.1787 14.2764 34.2799 15.1097 33.8301 15.4082C34.6988 15.9249 35.0909 17.0297 35.1787 17.5176C35.18 17.1519 35.1805 16.6898 35.1816 16.208C35.1828 16.6898 35.1843 17.1519 35.1855 17.5176C35.2734 17.0297 35.6655 15.9249 36.5342 15.4082C36.0843 15.1097 35.1855 14.2764 35.1855 13.3281C35.1817 13.3281 35.1822 13.643 35.1816 14.1133Z" fill="#FFB54B"/>
</svg>
