<svg width="386" height="214" viewBox="0 0 386 214" fill="none" xmlns="http://www.w3.org/2000/svg">
<g opacity="0.3" filter="url(#filter0_d_40_374)">
<path d="M-135 86.2226H-48.5353M374 12.5H134.605C128.713 12.5 123.01 14.5813 118.503 18.3766L81.7056 49.3613M-48.5353 86.2226H28.8058C34.6981 86.2226 40.4011 84.1413 44.9084 80.346L81.7056 49.3613M-48.5353 86.2226L15.9958 140.56C20.5031 144.356 26.2061 146.437 32.0984 146.437H126.69C132.583 146.437 138.286 148.518 142.793 152.314L194.227 195.623C198.735 199.419 204.438 201.5 210.33 201.5H362.036M81.7056 49.3613L128.835 89.0462C133.342 92.8416 139.045 94.9228 144.938 94.9228H171.705M251.1 94.9228H171.705M171.705 94.9228L194.227 113.888C198.735 117.683 204.438 119.764 210.33 119.764H347.897" stroke="url(#paint0_radial_40_374)" shape-rendering="crispEdges"/>
</g>
<defs>
<filter id="filter0_d_40_374" x="-147" y="0" width="533" height="214" filterUnits="userSpaceOnUse" color-interpolation-filters="sRGB">
<feFlood flood-opacity="0" result="BackgroundImageFix"/>
<feColorMatrix in="SourceAlpha" type="matrix" values="0 0 0 0 0 0 0 0 0 0 0 0 0 0 0 0 0 0 127 0" result="hardAlpha"/>
<feOffset/>
<feGaussianBlur stdDeviation="6"/>
<feComposite in2="hardAlpha" operator="out"/>
<feColorMatrix type="matrix" values="0 0 0 0 0.892029 0 0 0 0 1 0 0 0 0 0.22878 0 0 0 0.5 0"/>
<feBlend mode="normal" in2="BackgroundImageFix" result="effect1_dropShadow_40_374"/>
<feBlend mode="normal" in="SourceGraphic" in2="effect1_dropShadow_40_374" result="shape"/>
</filter>
<radialGradient id="paint0_radial_40_374" cx="0" cy="0" r="1" gradientTransform="matrix(283.549 -21.853 58.8528 541.439 -19.0908 94.6382)" gradientUnits="userSpaceOnUse">
<stop stop-color="#925A00"/>
<stop offset="1" stop-color="#E3FF3A" stop-opacity="0.55"/>
</radialGradient>
</defs>
</svg>
