<svg width="40" height="38" viewBox="0 0 40 38" fill="none" xmlns="http://www.w3.org/2000/svg">
<circle cx="18.6235" cy="18.6255" r="18.6235" fill="#FFB54B"/>
<path d="M39.7969 18.624C39.7966 28.9093 31.4582 37.2471 21.1728 37.2471C20.9131 37.2471 20.6546 37.24 20.3975 37.2295C30.3229 36.8227 38.2449 28.6494 38.2451 18.624C38.2451 8.59844 30.3231 0.423386 20.3975 0.0166007C20.6546 0.00606176 20.9131 5.65694e-06 21.1729 -8.14082e-07C31.4584 -3.64488e-07 39.7969 8.33852 39.7969 18.624Z" fill="#FFB54B"/>
<path d="M18.739 5.98828C18.714 6.33977 18.6774 6.68933 18.6306 7.03696C18.1132 10.8513 16.2966 14.3553 13.4144 17.0363C12.7738 17.6328 12.096 18.1729 11.3886 18.6558C9.54246 19.9143 7.4858 20.7827 5.32129 21.2221V15.2629C6.84582 14.7728 8.26314 13.9441 9.47955 12.8127C11.4412 10.9873 12.6525 8.58914 12.9414 5.98828H18.739ZM18.7346 31.2625H12.9349C12.6345 28.6847 11.4265 26.3096 9.4802 24.4983C8.26378 23.3662 6.84646 22.5382 5.32193 22.0482V16.0896C7.48708 16.5296 9.54374 17.3981 11.3892 18.6565C12.0979 19.1388 12.7751 19.6801 13.4151 20.2754C16.296 22.9564 18.1132 26.459 18.6312 30.2741V30.2753C18.6755 30.6025 18.7102 30.9315 18.7346 31.2625ZM31.9257 15.2654V21.2195C29.7657 20.7789 27.7142 19.9117 25.8719 18.6558C25.1639 18.1729 24.486 17.6322 23.846 17.0363C20.9652 14.3553 19.1473 10.852 18.6306 7.03696C18.5837 6.68997 18.5465 6.34041 18.5214 5.98828H24.3191C24.8031 10.3825 27.8714 13.9711 31.9257 15.2654ZM31.9257 16.0928V22.0456C27.8901 23.3342 24.832 26.8958 24.3268 31.2631H18.5266C18.5516 30.9321 18.5869 30.6031 18.6312 30.276V30.2747C19.1486 26.459 20.9652 22.9564 23.8467 20.276C24.4873 19.6801 25.1639 19.1401 25.8725 18.6571C27.7142 17.4013 29.7657 16.5341 31.9264 16.0935L31.9257 16.0928Z" fill="white"/>
</svg>
